<mxfile host="app.diagrams.net" modified="2024-02-19T18:08:45.044Z" agent="Mozilla/5.0 (Windows NT 10.0; Win64; x64; rv:122.0) Gecko/20100101 Firefox/122.0" etag="rz5vAY-16Np7sLPp4-Kj" version="23.1.5" type="google">
  <diagram name="Pagina-1" id="dsxdWCQ7GqbsdYa_XFen">
    <mxGraphModel grid="1" page="1" gridSize="10" guides="1" tooltips="1" connect="1" arrows="1" fold="1" pageScale="1" pageWidth="827" pageHeight="1169" math="0" shadow="0">
      <root>
        <mxCell id="0" />
        <mxCell id="1" parent="0" />
        <mxCell id="TiZyf9ypteRb4zg2fZ_G-7" style="edgeStyle=orthogonalEdgeStyle;rounded=0;orthogonalLoop=1;jettySize=auto;html=1;exitX=1;exitY=0;exitDx=0;exitDy=0;entryX=0.5;entryY=1;entryDx=0;entryDy=0;" edge="1" parent="1" source="BlBRRxsIzUEOzJf20E_O-1" target="TiZyf9ypteRb4zg2fZ_G-3">
          <mxGeometry relative="1" as="geometry">
            <Array as="points">
              <mxPoint x="293" y="170" />
              <mxPoint x="293" y="135" />
            </Array>
          </mxGeometry>
        </mxCell>
        <mxCell id="TiZyf9ypteRb4zg2fZ_G-11" style="edgeStyle=orthogonalEdgeStyle;rounded=0;orthogonalLoop=1;jettySize=auto;html=1;exitX=0.25;exitY=1;exitDx=0;exitDy=0;entryX=0.5;entryY=0;entryDx=0;entryDy=0;" edge="1" parent="1" source="BlBRRxsIzUEOzJf20E_O-1" target="TiZyf9ypteRb4zg2fZ_G-10">
          <mxGeometry relative="1" as="geometry" />
        </mxCell>
        <mxCell id="TiZyf9ypteRb4zg2fZ_G-20" style="edgeStyle=orthogonalEdgeStyle;rounded=0;orthogonalLoop=1;jettySize=auto;html=1;exitX=1;exitY=0.5;exitDx=0;exitDy=0;entryX=0.5;entryY=0;entryDx=0;entryDy=0;" edge="1" parent="1" source="BlBRRxsIzUEOzJf20E_O-1" target="TiZyf9ypteRb4zg2fZ_G-19">
          <mxGeometry relative="1" as="geometry" />
        </mxCell>
        <mxCell id="BlBRRxsIzUEOzJf20E_O-1" value="Persona" style="rounded=0;whiteSpace=wrap;html=1;" vertex="1" parent="1">
          <mxGeometry x="179" y="170" width="120" height="60" as="geometry" />
        </mxCell>
        <mxCell id="BlBRRxsIzUEOzJf20E_O-21" style="edgeStyle=orthogonalEdgeStyle;rounded=0;orthogonalLoop=1;jettySize=auto;html=1;exitX=0.5;exitY=1;exitDx=0;exitDy=0;entryX=0.5;entryY=0;entryDx=0;entryDy=0;" edge="1" parent="1" source="BlBRRxsIzUEOzJf20E_O-2">
          <mxGeometry relative="1" as="geometry">
            <Array as="points">
              <mxPoint x="159" y="450" />
              <mxPoint x="220" y="450" />
            </Array>
            <mxPoint x="219.5000000000001" y="555" as="targetPoint" />
          </mxGeometry>
        </mxCell>
        <mxCell id="BlBRRxsIzUEOzJf20E_O-2" value="Paziente" style="rounded=0;whiteSpace=wrap;html=1;" vertex="1" parent="1">
          <mxGeometry x="99" y="362.5" width="120" height="60" as="geometry" />
        </mxCell>
        <mxCell id="BlBRRxsIzUEOzJf20E_O-61" style="edgeStyle=orthogonalEdgeStyle;rounded=0;orthogonalLoop=1;jettySize=auto;html=1;exitX=0.5;exitY=0;exitDx=0;exitDy=0;" edge="1" parent="1" source="BlBRRxsIzUEOzJf20E_O-3" target="BlBRRxsIzUEOzJf20E_O-60">
          <mxGeometry relative="1" as="geometry" />
        </mxCell>
        <mxCell id="TiZyf9ypteRb4zg2fZ_G-38" style="edgeStyle=orthogonalEdgeStyle;rounded=0;orthogonalLoop=1;jettySize=auto;html=1;exitX=1;exitY=0.75;exitDx=0;exitDy=0;entryX=0;entryY=0.5;entryDx=0;entryDy=0;" edge="1" parent="1" source="BlBRRxsIzUEOzJf20E_O-3" target="TiZyf9ypteRb4zg2fZ_G-34">
          <mxGeometry relative="1" as="geometry" />
        </mxCell>
        <mxCell id="BlBRRxsIzUEOzJf20E_O-3" value="Medico" style="rounded=0;whiteSpace=wrap;html=1;" vertex="1" parent="1">
          <mxGeometry x="334" y="310" width="120" height="55" as="geometry" />
        </mxCell>
        <mxCell id="BlBRRxsIzUEOzJf20E_O-4" value="visita" style="whiteSpace=wrap;html=1;" vertex="1" parent="1">
          <mxGeometry x="319" y="550" width="120" height="60" as="geometry" />
        </mxCell>
        <mxCell id="TiZyf9ypteRb4zg2fZ_G-57" style="edgeStyle=orthogonalEdgeStyle;rounded=0;orthogonalLoop=1;jettySize=auto;html=1;exitX=0.5;exitY=1;exitDx=0;exitDy=0;entryX=0;entryY=0.5;entryDx=0;entryDy=0;" edge="1" parent="1" source="BlBRRxsIzUEOzJf20E_O-5" target="BlBRRxsIzUEOzJf20E_O-90">
          <mxGeometry relative="1" as="geometry" />
        </mxCell>
        <mxCell id="BlBRRxsIzUEOzJf20E_O-5" value="Privata" style="rounded=0;whiteSpace=wrap;html=1;" vertex="1" parent="1">
          <mxGeometry x="324" y="742.5" width="120" height="60" as="geometry" />
        </mxCell>
        <mxCell id="BlBRRxsIzUEOzJf20E_O-99" style="edgeStyle=orthogonalEdgeStyle;rounded=0;orthogonalLoop=1;jettySize=auto;html=1;exitX=0;exitY=0.5;exitDx=0;exitDy=0;" edge="1" parent="1" source="BlBRRxsIzUEOzJf20E_O-6">
          <mxGeometry relative="1" as="geometry">
            <mxPoint x="184" y="752.6176470588236" as="targetPoint" />
          </mxGeometry>
        </mxCell>
        <mxCell id="BlBRRxsIzUEOzJf20E_O-6" value="intramoenia" style="rounded=0;whiteSpace=wrap;html=1;" vertex="1" parent="1">
          <mxGeometry x="174" y="742.5" width="120" height="60" as="geometry" />
        </mxCell>
        <mxCell id="BlBRRxsIzUEOzJf20E_O-7" value="SSN/impegnativa" style="rounded=0;whiteSpace=wrap;html=1;" vertex="1" parent="1">
          <mxGeometry x="474" y="742.5" width="120" height="60" as="geometry" />
        </mxCell>
        <mxCell id="BlBRRxsIzUEOzJf20E_O-36" style="edgeStyle=orthogonalEdgeStyle;rounded=0;orthogonalLoop=1;jettySize=auto;html=1;exitX=0.5;exitY=0;exitDx=0;exitDy=0;entryX=0.5;entryY=1;entryDx=0;entryDy=0;" edge="1" parent="1" source="BlBRRxsIzUEOzJf20E_O-12" target="BlBRRxsIzUEOzJf20E_O-34">
          <mxGeometry relative="1" as="geometry" />
        </mxCell>
        <mxCell id="TiZyf9ypteRb4zg2fZ_G-44" style="edgeStyle=orthogonalEdgeStyle;rounded=0;orthogonalLoop=1;jettySize=auto;html=1;exitX=0;exitY=0.5;exitDx=0;exitDy=0;entryX=0.5;entryY=1;entryDx=0;entryDy=0;" edge="1" parent="1" source="BlBRRxsIzUEOzJf20E_O-12" target="TiZyf9ypteRb4zg2fZ_G-35">
          <mxGeometry relative="1" as="geometry" />
        </mxCell>
        <mxCell id="BlBRRxsIzUEOzJf20E_O-12" value="Ospedale" style="rounded=0;whiteSpace=wrap;html=1;" vertex="1" parent="1">
          <mxGeometry x="679" y="448" width="120" height="60" as="geometry" />
        </mxCell>
        <mxCell id="BlBRRxsIzUEOzJf20E_O-22" style="edgeStyle=orthogonalEdgeStyle;rounded=0;orthogonalLoop=1;jettySize=auto;html=1;exitX=1;exitY=0.5;exitDx=0;exitDy=0;entryX=0;entryY=0.5;entryDx=0;entryDy=0;" edge="1" parent="1" target="BlBRRxsIzUEOzJf20E_O-4">
          <mxGeometry relative="1" as="geometry">
            <mxPoint x="245.0000000000001" y="580" as="sourcePoint" />
          </mxGeometry>
        </mxCell>
        <mxCell id="BlBRRxsIzUEOzJf20E_O-95" style="edgeStyle=orthogonalEdgeStyle;rounded=0;orthogonalLoop=1;jettySize=auto;html=1;exitX=0;exitY=0.5;exitDx=0;exitDy=0;entryX=0.5;entryY=0;entryDx=0;entryDy=0;" edge="1" parent="1" source="BlBRRxsIzUEOzJf20E_O-23" target="BlBRRxsIzUEOzJf20E_O-4">
          <mxGeometry relative="1" as="geometry" />
        </mxCell>
        <mxCell id="BlBRRxsIzUEOzJf20E_O-23" value="gestione" style="rhombus;whiteSpace=wrap;html=1;" vertex="1" parent="1">
          <mxGeometry x="399" y="440" width="80" height="80" as="geometry" />
        </mxCell>
        <mxCell id="BlBRRxsIzUEOzJf20E_O-32" value="stipendio" style="text;html=1;align=center;verticalAlign=middle;resizable=0;points=[];autosize=1;strokeColor=none;fillColor=none;" vertex="1" parent="1">
          <mxGeometry x="531.5" y="275" width="70" height="30" as="geometry" />
        </mxCell>
        <mxCell id="BlBRRxsIzUEOzJf20E_O-35" style="edgeStyle=orthogonalEdgeStyle;rounded=0;orthogonalLoop=1;jettySize=auto;html=1;exitX=0.5;exitY=1;exitDx=0;exitDy=0;entryX=0.5;entryY=0;entryDx=0;entryDy=0;" edge="1" parent="1" source="BlBRRxsIzUEOzJf20E_O-33" target="BlBRRxsIzUEOzJf20E_O-34">
          <mxGeometry relative="1" as="geometry" />
        </mxCell>
        <mxCell id="BlBRRxsIzUEOzJf20E_O-33" value="Reparto" style="rounded=0;whiteSpace=wrap;html=1;" vertex="1" parent="1">
          <mxGeometry x="699" y="140" width="120" height="60" as="geometry" />
        </mxCell>
        <mxCell id="BlBRRxsIzUEOzJf20E_O-34" value="contenimento" style="rhombus;whiteSpace=wrap;html=1;" vertex="1" parent="1">
          <mxGeometry x="719" y="255" width="80" height="80" as="geometry" />
        </mxCell>
        <mxCell id="BlBRRxsIzUEOzJf20E_O-54" value="cod_osp" style="text;html=1;align=left;verticalAlign=middle;resizable=0;points=[];autosize=1;strokeColor=none;fillColor=none;" vertex="1" parent="1">
          <mxGeometry x="579" y="490" width="70" height="30" as="geometry" />
        </mxCell>
        <mxCell id="BlBRRxsIzUEOzJf20E_O-57" value="nome" style="text;html=1;align=center;verticalAlign=middle;resizable=0;points=[];autosize=1;strokeColor=none;fillColor=none;" vertex="1" parent="1">
          <mxGeometry x="689" y="240" width="50" height="30" as="geometry" />
        </mxCell>
        <mxCell id="BlBRRxsIzUEOzJf20E_O-60" value="direzione" style="rhombus;whiteSpace=wrap;html=1;" vertex="1" parent="1">
          <mxGeometry x="499" y="135" width="80" height="80" as="geometry" />
        </mxCell>
        <mxCell id="BlBRRxsIzUEOzJf20E_O-63" value="(0,1)" style="text;html=1;align=center;verticalAlign=middle;resizable=0;points=[];autosize=1;strokeColor=none;fillColor=none;" vertex="1" parent="1">
          <mxGeometry x="494" y="235" width="50" height="30" as="geometry" />
        </mxCell>
        <mxCell id="BlBRRxsIzUEOzJf20E_O-64" value="(1,1)" style="text;html=1;align=center;verticalAlign=middle;resizable=0;points=[];autosize=1;strokeColor=none;fillColor=none;" vertex="1" parent="1">
          <mxGeometry x="569" y="148" width="50" height="30" as="geometry" />
        </mxCell>
        <mxCell id="BlBRRxsIzUEOzJf20E_O-73" value="problematica" style="text;html=1;align=center;verticalAlign=middle;resizable=0;points=[];autosize=1;strokeColor=none;fillColor=none;" vertex="1" parent="1">
          <mxGeometry x="29" y="565" width="90" height="30" as="geometry" />
        </mxCell>
        <mxCell id="BlBRRxsIzUEOzJf20E_O-75" value="specializzazione" style="text;html=1;align=center;verticalAlign=middle;resizable=0;points=[];autosize=1;strokeColor=none;fillColor=none;" vertex="1" parent="1">
          <mxGeometry x="279" y="400" width="110" height="30" as="geometry" />
        </mxCell>
        <mxCell id="BlBRRxsIzUEOzJf20E_O-79" value="studio" style="rounded=0;whiteSpace=wrap;html=1;" vertex="1" parent="1">
          <mxGeometry x="692" y="852.5" width="120" height="60" as="geometry" />
        </mxCell>
        <mxCell id="BlBRRxsIzUEOzJf20E_O-90" value="effettuazione" style="rhombus;whiteSpace=wrap;html=1;" vertex="1" parent="1">
          <mxGeometry x="511" y="842.5" width="80" height="80" as="geometry" />
        </mxCell>
        <mxCell id="BlBRRxsIzUEOzJf20E_O-97" value="data eff." style="text;html=1;align=center;verticalAlign=middle;resizable=0;points=[];autosize=1;strokeColor=none;fillColor=none;" vertex="1" parent="1">
          <mxGeometry x="474" y="590" width="70" height="30" as="geometry" />
        </mxCell>
        <mxCell id="BlBRRxsIzUEOzJf20E_O-100" value="quota privata" style="text;html=1;align=center;verticalAlign=middle;resizable=0;points=[];autosize=1;strokeColor=none;fillColor=none;" vertex="1" parent="1">
          <mxGeometry x="39.5" y="757.5" width="90" height="30" as="geometry" />
        </mxCell>
        <mxCell id="BlBRRxsIzUEOzJf20E_O-102" value="num imp" style="text;html=1;align=center;verticalAlign=middle;resizable=0;points=[];autosize=1;strokeColor=none;fillColor=none;" vertex="1" parent="1">
          <mxGeometry x="610" y="747.5" width="70" height="30" as="geometry" />
        </mxCell>
        <mxCell id="1d6_LqG59afSAswkyyWS-1" value="(1, N)" style="text;html=1;align=center;verticalAlign=middle;resizable=0;points=[];autosize=1;strokeColor=none;fillColor=none;" vertex="1" parent="1">
          <mxGeometry x="610" y="450.5" width="50" height="30" as="geometry" />
        </mxCell>
        <mxCell id="1d6_LqG59afSAswkyyWS-2" value="(0, N)" style="text;html=1;align=center;verticalAlign=middle;resizable=0;points=[];autosize=1;strokeColor=none;fillColor=none;" vertex="1" parent="1">
          <mxGeometry x="444" y="322.5" width="50" height="30" as="geometry" />
        </mxCell>
        <mxCell id="1d6_LqG59afSAswkyyWS-5" value="" style="endArrow=none;html=1;rounded=0;" edge="1" parent="1">
          <mxGeometry width="50" height="50" relative="1" as="geometry">
            <mxPoint x="289" y="600" as="sourcePoint" />
            <mxPoint x="449" y="610" as="targetPoint" />
            <Array as="points">
              <mxPoint x="289" y="530" />
              <mxPoint x="449" y="530" />
            </Array>
          </mxGeometry>
        </mxCell>
        <mxCell id="1d6_LqG59afSAswkyyWS-6" value="" style="ellipse;whiteSpace=wrap;html=1;aspect=fixed;fillColor=#000000;fontColor=#333333;strokeColor=#666666;" vertex="1" parent="1">
          <mxGeometry x="444" y="610" width="10" height="10" as="geometry" />
        </mxCell>
        <mxCell id="1d6_LqG59afSAswkyyWS-14" value="" style="endArrow=none;html=1;rounded=0;entryX=1;entryY=0.5;entryDx=0;entryDy=0;" edge="1" parent="1" target="1d6_LqG59afSAswkyyWS-15">
          <mxGeometry width="50" height="50" relative="1" as="geometry">
            <mxPoint x="809" y="220" as="sourcePoint" />
            <mxPoint x="679" y="210" as="targetPoint" />
          </mxGeometry>
        </mxCell>
        <mxCell id="1d6_LqG59afSAswkyyWS-15" value="" style="ellipse;whiteSpace=wrap;html=1;aspect=fixed;fillColor=#000000;fontColor=#333333;strokeColor=#666666;" vertex="1" parent="1">
          <mxGeometry x="709" y="215" width="10" height="10" as="geometry" />
        </mxCell>
        <mxCell id="1d6_LqG59afSAswkyyWS-16" value="(0, N)" style="text;html=1;align=center;verticalAlign=middle;resizable=0;points=[];autosize=1;strokeColor=none;fillColor=none;" vertex="1" parent="1">
          <mxGeometry x="169" y="450.5" width="50" height="30" as="geometry" />
        </mxCell>
        <mxCell id="1d6_LqG59afSAswkyyWS-17" value="(0, N)" style="text;html=1;align=center;verticalAlign=middle;resizable=0;points=[];autosize=1;strokeColor=none;fillColor=none;" vertex="1" parent="1">
          <mxGeometry x="591" y="852.5" width="50" height="30" as="geometry" />
        </mxCell>
        <mxCell id="1d6_LqG59afSAswkyyWS-18" value="(1,1)" style="text;html=1;align=center;verticalAlign=middle;resizable=0;points=[];autosize=1;strokeColor=none;fillColor=none;" vertex="1" parent="1">
          <mxGeometry x="239" y="550" width="50" height="30" as="geometry" />
        </mxCell>
        <mxCell id="1d6_LqG59afSAswkyyWS-19" value="(1,1)" style="text;html=1;align=center;verticalAlign=middle;resizable=0;points=[];autosize=1;strokeColor=none;fillColor=none;" vertex="1" parent="1">
          <mxGeometry x="461" y="852.5" width="50" height="30" as="geometry" />
        </mxCell>
        <mxCell id="1d6_LqG59afSAswkyyWS-20" value="(0,N)" style="text;html=1;align=center;verticalAlign=middle;resizable=0;points=[];autosize=1;strokeColor=none;fillColor=none;" vertex="1" parent="1">
          <mxGeometry x="432" y="414.5" width="50" height="30" as="geometry" />
        </mxCell>
        <mxCell id="1d6_LqG59afSAswkyyWS-21" value="(1,1)" style="text;html=1;align=center;verticalAlign=middle;resizable=0;points=[];autosize=1;strokeColor=none;fillColor=none;" vertex="1" parent="1">
          <mxGeometry x="360" y="450.5" width="50" height="30" as="geometry" />
        </mxCell>
        <mxCell id="1d6_LqG59afSAswkyyWS-22" value="(1,N)" style="text;html=1;align=center;verticalAlign=middle;resizable=0;points=[];autosize=1;strokeColor=none;fillColor=none;" vertex="1" parent="1">
          <mxGeometry x="759" y="340" width="50" height="30" as="geometry" />
        </mxCell>
        <mxCell id="1d6_LqG59afSAswkyyWS-23" value="(1,1)" style="text;html=1;align=center;verticalAlign=middle;resizable=0;points=[];autosize=1;strokeColor=none;fillColor=none;" vertex="1" parent="1">
          <mxGeometry x="759" y="225" width="50" height="30" as="geometry" />
        </mxCell>
        <mxCell id="1d6_LqG59afSAswkyyWS-26" value="Business rules: &lt;br&gt;-num. pers. (Reparto) = num. medici totali -&amp;nbsp; num. medici con nome reparto differente dal richiesto;&lt;br&gt;-num. lavoratori (Ospedale) = num. medici assegnati all&#39;ospedale + num. lavoratori non medici;&lt;br&gt;-num. reparti (Ospedale) = contatore di reparti con nome differente associati a ospedale;&lt;br&gt;-se Medico si licenzia da Ospedale, non può essere assunto nuovamente nello stesso ospedale" style="text;html=1;align=center;verticalAlign=middle;resizable=0;points=[];autosize=1;strokeColor=none;fillColor=none;" vertex="1" parent="1">
          <mxGeometry x="44" y="952.5" width="550" height="90" as="geometry" />
        </mxCell>
        <mxCell id="FQ5N_f2iqAyfcSuhGjna-5" value="" style="endArrow=classic;html=1;rounded=0;entryX=0;entryY=0.5;entryDx=0;entryDy=0;" edge="1" parent="1" target="BlBRRxsIzUEOzJf20E_O-79">
          <mxGeometry width="50" height="50" relative="1" as="geometry">
            <mxPoint x="591" y="882.5" as="sourcePoint" />
            <mxPoint x="641" y="832.5" as="targetPoint" />
          </mxGeometry>
        </mxCell>
        <mxCell id="FQ5N_f2iqAyfcSuhGjna-6" value="" style="endArrow=none;html=1;rounded=0;" edge="1" parent="1" source="BlBRRxsIzUEOzJf20E_O-79">
          <mxGeometry width="50" height="50" relative="1" as="geometry">
            <mxPoint x="702" y="872.5" as="sourcePoint" />
            <mxPoint x="752" y="842.4999999999998" as="targetPoint" />
          </mxGeometry>
        </mxCell>
        <mxCell id="FQ5N_f2iqAyfcSuhGjna-8" value="" style="endArrow=none;html=1;rounded=0;exitX=1;exitY=0.5;exitDx=0;exitDy=0;entryX=0;entryY=0.5;entryDx=0;entryDy=0;" edge="1" parent="1" source="BlBRRxsIzUEOzJf20E_O-7" target="FQ5N_f2iqAyfcSuhGjna-48">
          <mxGeometry width="50" height="50" relative="1" as="geometry">
            <mxPoint x="404" y="742.5" as="sourcePoint" />
            <mxPoint x="564" y="732.5" as="targetPoint" />
            <Array as="points" />
          </mxGeometry>
        </mxCell>
        <mxCell id="FQ5N_f2iqAyfcSuhGjna-9" value="" style="endArrow=none;html=1;rounded=0;exitX=1;exitY=0.75;exitDx=0;exitDy=0;entryX=0;entryY=0.5;entryDx=0;entryDy=0;" edge="1" parent="1" source="BlBRRxsIzUEOzJf20E_O-4" target="FQ5N_f2iqAyfcSuhGjna-45">
          <mxGeometry width="50" height="50" relative="1" as="geometry">
            <mxPoint x="469" y="580" as="sourcePoint" />
            <mxPoint x="519" y="530" as="targetPoint" />
          </mxGeometry>
        </mxCell>
        <mxCell id="FQ5N_f2iqAyfcSuhGjna-10" value="" style="endArrow=none;html=1;rounded=0;exitX=0.75;exitY=1;exitDx=0;exitDy=0;entryX=0;entryY=0;entryDx=0;entryDy=0;" edge="1" parent="1" source="BlBRRxsIzUEOzJf20E_O-4" target="FQ5N_f2iqAyfcSuhGjna-47">
          <mxGeometry width="50" height="50" relative="1" as="geometry">
            <mxPoint x="469" y="670" as="sourcePoint" />
            <mxPoint x="419" y="630" as="targetPoint" />
          </mxGeometry>
        </mxCell>
        <mxCell id="FQ5N_f2iqAyfcSuhGjna-11" value="prezzo" style="text;html=1;align=center;verticalAlign=middle;resizable=0;points=[];autosize=1;strokeColor=none;fillColor=none;" vertex="1" parent="1">
          <mxGeometry x="424" y="620" width="60" height="30" as="geometry" />
        </mxCell>
        <mxCell id="FQ5N_f2iqAyfcSuhGjna-15" value="" style="endArrow=none;html=1;rounded=0;exitX=0.5;exitY=0;exitDx=0;exitDy=0;entryX=0.5;entryY=1;entryDx=0;entryDy=0;" edge="1" parent="1" source="BlBRRxsIzUEOzJf20E_O-6" target="TiZyf9ypteRb4zg2fZ_G-58">
          <mxGeometry width="50" height="50" relative="1" as="geometry">
            <mxPoint x="114" y="742.5" as="sourcePoint" />
            <mxPoint x="234" y="722.5" as="targetPoint" />
          </mxGeometry>
        </mxCell>
        <mxCell id="FQ5N_f2iqAyfcSuhGjna-16" value="" style="endArrow=none;html=1;rounded=0;exitX=0.5;exitY=0;exitDx=0;exitDy=0;entryX=0.5;entryY=1;entryDx=0;entryDy=0;" edge="1" parent="1" source="BlBRRxsIzUEOzJf20E_O-5" target="TiZyf9ypteRb4zg2fZ_G-60">
          <mxGeometry width="50" height="50" relative="1" as="geometry">
            <mxPoint x="334" y="772.5" as="sourcePoint" />
            <mxPoint x="384" y="722.5" as="targetPoint" />
          </mxGeometry>
        </mxCell>
        <mxCell id="FQ5N_f2iqAyfcSuhGjna-18" value="" style="endArrow=none;html=1;rounded=0;exitX=0.5;exitY=0;exitDx=0;exitDy=0;entryX=0.5;entryY=1;entryDx=0;entryDy=0;" edge="1" parent="1" source="BlBRRxsIzUEOzJf20E_O-7" target="TiZyf9ypteRb4zg2fZ_G-61">
          <mxGeometry width="50" height="50" relative="1" as="geometry">
            <mxPoint x="484" y="772.5" as="sourcePoint" />
            <mxPoint x="534" y="722.5" as="targetPoint" />
          </mxGeometry>
        </mxCell>
        <mxCell id="FQ5N_f2iqAyfcSuhGjna-19" value="" style="endArrow=none;html=1;rounded=0;entryX=0;entryY=0.5;entryDx=0;entryDy=0;exitX=1;exitY=0.5;exitDx=0;exitDy=0;" edge="1" parent="1" source="FQ5N_f2iqAyfcSuhGjna-49" target="BlBRRxsIzUEOzJf20E_O-6">
          <mxGeometry width="50" height="50" relative="1" as="geometry">
            <mxPoint x="84" y="872.5" as="sourcePoint" />
            <mxPoint x="134" y="822.5" as="targetPoint" />
          </mxGeometry>
        </mxCell>
        <mxCell id="FQ5N_f2iqAyfcSuhGjna-20" value="" style="endArrow=none;html=1;rounded=0;entryX=0;entryY=0.75;entryDx=0;entryDy=0;exitX=1;exitY=0.5;exitDx=0;exitDy=0;" edge="1" parent="1" source="FQ5N_f2iqAyfcSuhGjna-21" target="BlBRRxsIzUEOzJf20E_O-12">
          <mxGeometry width="50" height="50" relative="1" as="geometry">
            <mxPoint x="649" y="450" as="sourcePoint" />
            <mxPoint x="699" y="430" as="targetPoint" />
          </mxGeometry>
        </mxCell>
        <mxCell id="FQ5N_f2iqAyfcSuhGjna-21" value="" style="ellipse;whiteSpace=wrap;html=1;aspect=fixed;fillColor=#000000;fontColor=#333333;strokeColor=#666666;" vertex="1" parent="1">
          <mxGeometry x="629" y="490" width="10" height="10" as="geometry" />
        </mxCell>
        <mxCell id="FQ5N_f2iqAyfcSuhGjna-27" value="num. pers." style="text;html=1;align=center;verticalAlign=middle;resizable=0;points=[];autosize=1;strokeColor=none;fillColor=none;" vertex="1" parent="1">
          <mxGeometry x="739" y="50" width="80" height="30" as="geometry" />
        </mxCell>
        <mxCell id="FQ5N_f2iqAyfcSuhGjna-28" value="" style="endArrow=none;html=1;rounded=0;entryX=0.25;entryY=0;entryDx=0;entryDy=0;" edge="1" parent="1" source="FQ5N_f2iqAyfcSuhGjna-29" target="BlBRRxsIzUEOzJf20E_O-33">
          <mxGeometry width="50" height="50" relative="1" as="geometry">
            <mxPoint x="639" y="240" as="sourcePoint" />
            <mxPoint x="689" y="190" as="targetPoint" />
          </mxGeometry>
        </mxCell>
        <mxCell id="FQ5N_f2iqAyfcSuhGjna-29" value="" style="ellipse;whiteSpace=wrap;html=1;aspect=fixed;" vertex="1" parent="1">
          <mxGeometry x="679" y="90" width="10" height="10" as="geometry" />
        </mxCell>
        <mxCell id="FQ5N_f2iqAyfcSuhGjna-31" value="" style="ellipse;whiteSpace=wrap;html=1;aspect=fixed;" vertex="1" parent="1">
          <mxGeometry x="784" y="80" width="10" height="10" as="geometry" />
        </mxCell>
        <mxCell id="FQ5N_f2iqAyfcSuhGjna-32" value="" style="endArrow=none;html=1;rounded=0;entryX=0.75;entryY=0;entryDx=0;entryDy=0;exitX=0.5;exitY=1;exitDx=0;exitDy=0;" edge="1" parent="1" source="FQ5N_f2iqAyfcSuhGjna-31" target="BlBRRxsIzUEOzJf20E_O-33">
          <mxGeometry width="50" height="50" relative="1" as="geometry">
            <mxPoint x="539" y="280" as="sourcePoint" />
            <mxPoint x="589" y="230" as="targetPoint" />
          </mxGeometry>
        </mxCell>
        <mxCell id="FQ5N_f2iqAyfcSuhGjna-33" value="num. stanze" style="text;html=1;align=center;verticalAlign=middle;resizable=0;points=[];autosize=1;strokeColor=none;fillColor=none;" vertex="1" parent="1">
          <mxGeometry x="630" y="60" width="90" height="30" as="geometry" />
        </mxCell>
        <mxCell id="FQ5N_f2iqAyfcSuhGjna-34" value="data assun." style="text;html=1;align=center;verticalAlign=middle;resizable=0;points=[];autosize=1;strokeColor=none;fillColor=none;" vertex="1" parent="1">
          <mxGeometry x="534" y="430" width="90" height="30" as="geometry" />
        </mxCell>
        <mxCell id="FQ5N_f2iqAyfcSuhGjna-35" value="" style="ellipse;whiteSpace=wrap;html=1;aspect=fixed;" vertex="1" parent="1">
          <mxGeometry x="588" y="428" width="12" height="12" as="geometry" />
        </mxCell>
        <mxCell id="FQ5N_f2iqAyfcSuhGjna-36" value="" style="ellipse;whiteSpace=wrap;html=1;" vertex="1" parent="1">
          <mxGeometry x="564" y="300" width="10" height="10" as="geometry" />
        </mxCell>
        <mxCell id="FQ5N_f2iqAyfcSuhGjna-37" value="" style="endArrow=none;html=1;rounded=0;entryX=0.5;entryY=1;entryDx=0;entryDy=0;entryPerimeter=0;exitX=0.25;exitY=0;exitDx=0;exitDy=0;" edge="1" parent="1" source="TiZyf9ypteRb4zg2fZ_G-32" target="FQ5N_f2iqAyfcSuhGjna-36">
          <mxGeometry width="50" height="50" relative="1" as="geometry">
            <mxPoint x="594" y="330" as="sourcePoint" />
            <mxPoint x="599" y="320" as="targetPoint" />
          </mxGeometry>
        </mxCell>
        <mxCell id="FQ5N_f2iqAyfcSuhGjna-38" value="" style="endArrow=none;html=1;rounded=0;entryX=0.5;entryY=1;entryDx=0;entryDy=0;exitX=0.5;exitY=0;exitDx=0;exitDy=0;" edge="1" parent="1" source="FQ5N_f2iqAyfcSuhGjna-35" target="TiZyf9ypteRb4zg2fZ_G-32">
          <mxGeometry width="50" height="50" relative="1" as="geometry">
            <mxPoint x="509" y="460" as="sourcePoint" />
            <mxPoint x="594" y="410" as="targetPoint" />
          </mxGeometry>
        </mxCell>
        <mxCell id="FQ5N_f2iqAyfcSuhGjna-40" value="" style="ellipse;whiteSpace=wrap;html=1;" vertex="1" parent="1">
          <mxGeometry x="719" y="235" width="10" height="10" as="geometry" />
        </mxCell>
        <mxCell id="FQ5N_f2iqAyfcSuhGjna-41" value="" style="endArrow=none;html=1;rounded=0;entryX=0.25;entryY=1;entryDx=0;entryDy=0;exitX=0.5;exitY=0;exitDx=0;exitDy=0;" edge="1" parent="1" source="FQ5N_f2iqAyfcSuhGjna-40" target="BlBRRxsIzUEOzJf20E_O-33">
          <mxGeometry width="50" height="50" relative="1" as="geometry">
            <mxPoint x="639" y="320" as="sourcePoint" />
            <mxPoint x="689" y="270" as="targetPoint" />
          </mxGeometry>
        </mxCell>
        <mxCell id="FQ5N_f2iqAyfcSuhGjna-44" value="" style="endArrow=classic;html=1;rounded=0;exitX=0.5;exitY=1;exitDx=0;exitDy=0;entryX=0.5;entryY=0;entryDx=0;entryDy=0;" edge="1" parent="1" source="BlBRRxsIzUEOzJf20E_O-3" target="BlBRRxsIzUEOzJf20E_O-23">
          <mxGeometry width="50" height="50" relative="1" as="geometry">
            <mxPoint x="379" y="450" as="sourcePoint" />
            <mxPoint x="429" y="400" as="targetPoint" />
            <Array as="points">
              <mxPoint x="394" y="400" />
              <mxPoint x="439" y="400" />
            </Array>
          </mxGeometry>
        </mxCell>
        <mxCell id="FQ5N_f2iqAyfcSuhGjna-45" value="" style="ellipse;whiteSpace=wrap;html=1;" vertex="1" parent="1">
          <mxGeometry x="479" y="590" width="10" height="10" as="geometry" />
        </mxCell>
        <mxCell id="FQ5N_f2iqAyfcSuhGjna-47" value="" style="ellipse;whiteSpace=wrap;html=1;" vertex="1" parent="1">
          <mxGeometry x="424" y="630" width="10" height="10" as="geometry" />
        </mxCell>
        <mxCell id="FQ5N_f2iqAyfcSuhGjna-48" value="" style="ellipse;whiteSpace=wrap;html=1;" vertex="1" parent="1">
          <mxGeometry x="634" y="772.5" width="10" height="10" as="geometry" />
        </mxCell>
        <mxCell id="FQ5N_f2iqAyfcSuhGjna-49" value="" style="ellipse;whiteSpace=wrap;html=1;" vertex="1" parent="1">
          <mxGeometry x="124" y="767.5" width="10" height="10" as="geometry" />
        </mxCell>
        <mxCell id="FQ5N_f2iqAyfcSuhGjna-52" value="" style="ellipse;whiteSpace=wrap;html=1;" vertex="1" parent="1">
          <mxGeometry x="119" y="575" width="10" height="10" as="geometry" />
        </mxCell>
        <mxCell id="FQ5N_f2iqAyfcSuhGjna-53" value="" style="endArrow=none;html=1;rounded=0;entryX=0;entryY=0.5;entryDx=0;entryDy=0;exitX=1;exitY=0.5;exitDx=0;exitDy=0;" edge="1" parent="1" source="FQ5N_f2iqAyfcSuhGjna-52">
          <mxGeometry width="50" height="50" relative="1" as="geometry">
            <mxPoint x="99" y="680" as="sourcePoint" />
            <mxPoint x="194" y="580" as="targetPoint" />
          </mxGeometry>
        </mxCell>
        <mxCell id="FQ5N_f2iqAyfcSuhGjna-55" value="matricola" style="text;html=1;align=center;verticalAlign=middle;resizable=0;points=[];autosize=1;strokeColor=none;fillColor=none;" vertex="1" parent="1">
          <mxGeometry x="244" y="370" width="70" height="30" as="geometry" />
        </mxCell>
        <mxCell id="FQ5N_f2iqAyfcSuhGjna-56" value="" style="ellipse;whiteSpace=wrap;html=1;" vertex="1" parent="1">
          <mxGeometry x="279" y="365" width="10" height="10" as="geometry" />
        </mxCell>
        <mxCell id="FQ5N_f2iqAyfcSuhGjna-57" value="" style="ellipse;whiteSpace=wrap;html=1;" vertex="1" parent="1">
          <mxGeometry x="359" y="398" width="10" height="10" as="geometry" />
        </mxCell>
        <mxCell id="FQ5N_f2iqAyfcSuhGjna-58" value="" style="endArrow=none;html=1;rounded=0;exitX=0.5;exitY=0;exitDx=0;exitDy=0;entryX=0.25;entryY=1;entryDx=0;entryDy=0;" edge="1" parent="1" source="FQ5N_f2iqAyfcSuhGjna-57" target="BlBRRxsIzUEOzJf20E_O-3">
          <mxGeometry width="50" height="50" relative="1" as="geometry">
            <mxPoint x="219" y="470" as="sourcePoint" />
            <mxPoint x="269" y="420" as="targetPoint" />
          </mxGeometry>
        </mxCell>
        <mxCell id="FQ5N_f2iqAyfcSuhGjna-59" value="" style="endArrow=none;html=1;rounded=0;entryX=0;entryY=0.632;entryDx=0;entryDy=0;entryPerimeter=0;exitX=1;exitY=0;exitDx=0;exitDy=0;" edge="1" parent="1" source="FQ5N_f2iqAyfcSuhGjna-56" target="BlBRRxsIzUEOzJf20E_O-3">
          <mxGeometry width="50" height="50" relative="1" as="geometry">
            <mxPoint x="239" y="470" as="sourcePoint" />
            <mxPoint x="289" y="420" as="targetPoint" />
          </mxGeometry>
        </mxCell>
        <mxCell id="FQ5N_f2iqAyfcSuhGjna-60" value="città" style="text;html=1;align=center;verticalAlign=middle;resizable=0;points=[];autosize=1;strokeColor=none;fillColor=none;" vertex="1" parent="1">
          <mxGeometry x="777" y="952.5" width="50" height="30" as="geometry" />
        </mxCell>
        <mxCell id="FQ5N_f2iqAyfcSuhGjna-61" value="civico" style="text;html=1;align=center;verticalAlign=middle;resizable=0;points=[];autosize=1;strokeColor=none;fillColor=none;" vertex="1" parent="1">
          <mxGeometry x="680" y="952.5" width="50" height="30" as="geometry" />
        </mxCell>
        <mxCell id="FQ5N_f2iqAyfcSuhGjna-62" value="via" style="text;html=1;align=center;verticalAlign=middle;resizable=0;points=[];autosize=1;strokeColor=none;fillColor=none;" vertex="1" parent="1">
          <mxGeometry x="739" y="952.5" width="40" height="30" as="geometry" />
        </mxCell>
        <mxCell id="FQ5N_f2iqAyfcSuhGjna-63" value="civico" style="text;html=1;align=center;verticalAlign=middle;resizable=0;points=[];autosize=1;strokeColor=none;fillColor=none;" vertex="1" parent="1">
          <mxGeometry x="729" y="595" width="50" height="30" as="geometry" />
        </mxCell>
        <mxCell id="FQ5N_f2iqAyfcSuhGjna-64" value="" style="ellipse;whiteSpace=wrap;html=1;" vertex="1" parent="1">
          <mxGeometry x="802" y="952.5" width="10" height="10" as="geometry" />
        </mxCell>
        <mxCell id="FQ5N_f2iqAyfcSuhGjna-65" value="" style="ellipse;whiteSpace=wrap;html=1;" vertex="1" parent="1">
          <mxGeometry x="756" y="952.5" width="10" height="10" as="geometry" />
        </mxCell>
        <mxCell id="FQ5N_f2iqAyfcSuhGjna-66" value="" style="ellipse;whiteSpace=wrap;html=1;" vertex="1" parent="1">
          <mxGeometry x="705.5" y="952.5" width="10" height="10" as="geometry" />
        </mxCell>
        <mxCell id="FQ5N_f2iqAyfcSuhGjna-70" value="" style="endArrow=none;html=1;rounded=0;exitX=0.5;exitY=0;exitDx=0;exitDy=0;entryX=0.25;entryY=1;entryDx=0;entryDy=0;" edge="1" parent="1" source="FQ5N_f2iqAyfcSuhGjna-66" target="BlBRRxsIzUEOzJf20E_O-79">
          <mxGeometry width="50" height="50" relative="1" as="geometry">
            <mxPoint x="684.5" y="1047.5" as="sourcePoint" />
            <mxPoint x="745.1981523647758" y="997.4999999999998" as="targetPoint" />
          </mxGeometry>
        </mxCell>
        <mxCell id="FQ5N_f2iqAyfcSuhGjna-71" value="" style="endArrow=none;html=1;rounded=0;exitX=0.592;exitY=1.032;exitDx=0;exitDy=0;exitPerimeter=0;entryX=0.5;entryY=0;entryDx=0;entryDy=0;" edge="1" parent="1" source="BlBRRxsIzUEOzJf20E_O-79" target="FQ5N_f2iqAyfcSuhGjna-65">
          <mxGeometry width="50" height="50" relative="1" as="geometry">
            <mxPoint x="765.4000000000001" y="996.03" as="sourcePoint" />
            <mxPoint x="834.5" y="917.5" as="targetPoint" />
          </mxGeometry>
        </mxCell>
        <mxCell id="FQ5N_f2iqAyfcSuhGjna-72" value="" style="endArrow=none;html=1;rounded=0;exitX=0.886;exitY=0.994;exitDx=0;exitDy=0;exitPerimeter=0;entryX=0.5;entryY=0;entryDx=0;entryDy=0;" edge="1" parent="1" source="BlBRRxsIzUEOzJf20E_O-79" target="FQ5N_f2iqAyfcSuhGjna-64">
          <mxGeometry width="50" height="50" relative="1" as="geometry">
            <mxPoint x="798.79" y="994.4399999999998" as="sourcePoint" />
            <mxPoint x="854.5" y="917.5" as="targetPoint" />
          </mxGeometry>
        </mxCell>
        <mxCell id="FQ5N_f2iqAyfcSuhGjna-95" value="n.reparti" style="text;html=1;align=center;verticalAlign=middle;resizable=0;points=[];autosize=1;strokeColor=none;fillColor=none;" vertex="1" parent="1">
          <mxGeometry x="664" y="388" width="70" height="30" as="geometry" />
        </mxCell>
        <mxCell id="FQ5N_f2iqAyfcSuhGjna-107" value="" style="ellipse;whiteSpace=wrap;html=1;" vertex="1" parent="1">
          <mxGeometry x="699" y="412" width="10" height="10" as="geometry" />
        </mxCell>
        <mxCell id="FQ5N_f2iqAyfcSuhGjna-108" value="" style="endArrow=none;html=1;rounded=0;exitX=0.25;exitY=0;exitDx=0;exitDy=0;entryX=0.5;entryY=1;entryDx=0;entryDy=0;" edge="1" parent="1" source="BlBRRxsIzUEOzJf20E_O-12" target="FQ5N_f2iqAyfcSuhGjna-107">
          <mxGeometry width="50" height="50" relative="1" as="geometry">
            <mxPoint x="688" y="434" as="sourcePoint" />
            <mxPoint x="699" y="430" as="targetPoint" />
          </mxGeometry>
        </mxCell>
        <mxCell id="FQ5N_f2iqAyfcSuhGjna-109" value="" style="ellipse;whiteSpace=wrap;html=1;" vertex="1" parent="1">
          <mxGeometry x="649" y="530" width="10" height="10" as="geometry" />
        </mxCell>
        <mxCell id="FQ5N_f2iqAyfcSuhGjna-110" value="" style="endArrow=none;html=1;rounded=0;exitX=0;exitY=1;exitDx=0;exitDy=0;entryX=1;entryY=0;entryDx=0;entryDy=0;" edge="1" parent="1" source="BlBRRxsIzUEOzJf20E_O-12" target="FQ5N_f2iqAyfcSuhGjna-109">
          <mxGeometry width="50" height="50" relative="1" as="geometry">
            <mxPoint x="698" y="562" as="sourcePoint" />
            <mxPoint x="754" y="485" as="targetPoint" />
          </mxGeometry>
        </mxCell>
        <mxCell id="FQ5N_f2iqAyfcSuhGjna-112" value="n. lavor." style="text;html=1;align=center;verticalAlign=middle;resizable=0;points=[];autosize=1;strokeColor=none;fillColor=none;" vertex="1" parent="1">
          <mxGeometry x="601.5" y="535" width="70" height="30" as="geometry" />
        </mxCell>
        <mxCell id="FQ5N_f2iqAyfcSuhGjna-113" value="" style="ellipse;whiteSpace=wrap;html=1;" vertex="1" parent="1">
          <mxGeometry x="745" y="585" width="10" height="10" as="geometry" />
        </mxCell>
        <mxCell id="FQ5N_f2iqAyfcSuhGjna-114" value="" style="endArrow=none;html=1;rounded=0;exitX=0.5;exitY=1;exitDx=0;exitDy=0;entryX=0.5;entryY=0;entryDx=0;entryDy=0;" edge="1" parent="1" source="BlBRRxsIzUEOzJf20E_O-12" target="FQ5N_f2iqAyfcSuhGjna-113">
          <mxGeometry width="50" height="50" relative="1" as="geometry">
            <mxPoint x="764.9500000000003" y="566.92" as="sourcePoint" />
            <mxPoint x="844.5" y="539" as="targetPoint" />
          </mxGeometry>
        </mxCell>
        <mxCell id="FQ5N_f2iqAyfcSuhGjna-115" value="" style="ellipse;whiteSpace=wrap;html=1;" vertex="1" parent="1">
          <mxGeometry x="799" y="550" width="10" height="10" as="geometry" />
        </mxCell>
        <mxCell id="FQ5N_f2iqAyfcSuhGjna-116" value="" style="endArrow=none;html=1;rounded=0;entryX=0;entryY=0;entryDx=0;entryDy=0;exitX=0.925;exitY=1.033;exitDx=0;exitDy=0;exitPerimeter=0;" edge="1" parent="1" source="BlBRRxsIzUEOzJf20E_O-12" target="FQ5N_f2iqAyfcSuhGjna-115">
          <mxGeometry width="50" height="50" relative="1" as="geometry">
            <mxPoint x="787.3500000000001" y="565.3299999999999" as="sourcePoint" />
            <mxPoint x="824" y="495" as="targetPoint" />
          </mxGeometry>
        </mxCell>
        <mxCell id="FQ5N_f2iqAyfcSuhGjna-117" value="" style="ellipse;whiteSpace=wrap;html=1;" vertex="1" parent="1">
          <mxGeometry x="709" y="560" width="10" height="10" as="geometry" />
        </mxCell>
        <mxCell id="FQ5N_f2iqAyfcSuhGjna-118" value="" style="endArrow=none;html=1;rounded=0;entryX=1;entryY=0;entryDx=0;entryDy=0;exitX=0.25;exitY=1;exitDx=0;exitDy=0;" edge="1" parent="1" source="BlBRRxsIzUEOzJf20E_O-12" target="FQ5N_f2iqAyfcSuhGjna-117">
          <mxGeometry width="50" height="50" relative="1" as="geometry">
            <mxPoint x="740" y="510" as="sourcePoint" />
            <mxPoint x="754" y="535" as="targetPoint" />
          </mxGeometry>
        </mxCell>
        <mxCell id="FQ5N_f2iqAyfcSuhGjna-119" value="" style="ellipse;whiteSpace=wrap;html=1;" vertex="1" parent="1">
          <mxGeometry x="679" y="545" width="10" height="10" as="geometry" />
        </mxCell>
        <mxCell id="FQ5N_f2iqAyfcSuhGjna-120" value="" style="endArrow=none;html=1;rounded=0;entryX=1;entryY=0;entryDx=0;entryDy=0;exitX=0.117;exitY=1.014;exitDx=0;exitDy=0;exitPerimeter=0;" edge="1" parent="1" source="BlBRRxsIzUEOzJf20E_O-12" target="FQ5N_f2iqAyfcSuhGjna-119">
          <mxGeometry width="50" height="50" relative="1" as="geometry">
            <mxPoint x="733.1473340334562" y="564.9999999999999" as="sourcePoint" />
            <mxPoint x="734" y="535" as="targetPoint" />
          </mxGeometry>
        </mxCell>
        <mxCell id="FQ5N_f2iqAyfcSuhGjna-121" value="città" style="text;html=1;align=center;verticalAlign=middle;resizable=0;points=[];autosize=1;strokeColor=none;fillColor=none;" vertex="1" parent="1">
          <mxGeometry x="630" y="550" width="50" height="30" as="geometry" />
        </mxCell>
        <mxCell id="FQ5N_f2iqAyfcSuhGjna-122" value="cap" style="text;html=1;align=center;verticalAlign=middle;resizable=0;points=[];autosize=1;strokeColor=none;fillColor=none;" vertex="1" parent="1">
          <mxGeometry x="769" y="585" width="40" height="30" as="geometry" />
        </mxCell>
        <mxCell id="FQ5N_f2iqAyfcSuhGjna-123" value="via" style="text;html=1;align=center;verticalAlign=middle;resizable=0;points=[];autosize=1;strokeColor=none;fillColor=none;" vertex="1" parent="1">
          <mxGeometry x="784" y="555" width="40" height="30" as="geometry" />
        </mxCell>
        <mxCell id="FQ5N_f2iqAyfcSuhGjna-124" value="civico" style="text;html=1;align=center;verticalAlign=middle;resizable=0;points=[];autosize=1;strokeColor=none;fillColor=none;" vertex="1" parent="1">
          <mxGeometry x="680" y="570" width="50" height="30" as="geometry" />
        </mxCell>
        <mxCell id="FQ5N_f2iqAyfcSuhGjna-127" value="CF" style="text;html=1;align=center;verticalAlign=middle;resizable=0;points=[];autosize=1;strokeColor=none;fillColor=none;" vertex="1" parent="1">
          <mxGeometry x="209" y="80" width="40" height="30" as="geometry" />
        </mxCell>
        <mxCell id="FQ5N_f2iqAyfcSuhGjna-128" value="" style="ellipse;whiteSpace=wrap;html=1;fillColor=#000000;strokeColor=#6c8ebf;" vertex="1" parent="1">
          <mxGeometry x="224" y="105" width="10" height="10" as="geometry" />
        </mxCell>
        <mxCell id="FQ5N_f2iqAyfcSuhGjna-129" value="" style="endArrow=none;html=1;rounded=0;exitX=0.317;exitY=-0.002;exitDx=0;exitDy=0;entryX=0.5;entryY=1;entryDx=0;entryDy=0;exitPerimeter=0;" edge="1" parent="1" source="BlBRRxsIzUEOzJf20E_O-1" target="FQ5N_f2iqAyfcSuhGjna-128">
          <mxGeometry width="50" height="50" relative="1" as="geometry">
            <mxPoint x="228" y="162" as="sourcePoint" />
            <mxPoint x="284" y="85" as="targetPoint" />
          </mxGeometry>
        </mxCell>
        <mxCell id="FQ5N_f2iqAyfcSuhGjna-137" value="nome" style="text;html=1;align=center;verticalAlign=middle;resizable=0;points=[];autosize=1;strokeColor=none;fillColor=none;" vertex="1" parent="1">
          <mxGeometry x="179" y="45" width="50" height="30" as="geometry" />
        </mxCell>
        <mxCell id="FQ5N_f2iqAyfcSuhGjna-138" value="cognome" style="text;html=1;align=center;verticalAlign=middle;resizable=0;points=[];autosize=1;strokeColor=none;fillColor=none;" vertex="1" parent="1">
          <mxGeometry x="99" y="65" width="70" height="30" as="geometry" />
        </mxCell>
        <mxCell id="FQ5N_f2iqAyfcSuhGjna-139" value="sesso" style="text;html=1;align=center;verticalAlign=middle;resizable=0;points=[];autosize=1;strokeColor=none;fillColor=none;" vertex="1" parent="1">
          <mxGeometry x="39.5" y="75" width="50" height="30" as="geometry" />
        </mxCell>
        <mxCell id="FQ5N_f2iqAyfcSuhGjna-140" value="data nascita" style="text;html=1;align=center;verticalAlign=middle;resizable=0;points=[];autosize=1;strokeColor=none;fillColor=none;" vertex="1" parent="1">
          <mxGeometry x="9" y="105" width="90" height="30" as="geometry" />
        </mxCell>
        <mxCell id="FQ5N_f2iqAyfcSuhGjna-141" value="luogo nascita" style="text;html=1;align=center;verticalAlign=middle;resizable=0;points=[];autosize=1;strokeColor=none;fillColor=none;" vertex="1" parent="1">
          <mxGeometry x="18" y="170" width="90" height="30" as="geometry" />
        </mxCell>
        <mxCell id="FQ5N_f2iqAyfcSuhGjna-142" value="" style="ellipse;whiteSpace=wrap;html=1;" vertex="1" parent="1">
          <mxGeometry x="194" y="75" width="10" height="10" as="geometry" />
        </mxCell>
        <mxCell id="FQ5N_f2iqAyfcSuhGjna-143" value="" style="endArrow=none;html=1;rounded=0;entryX=0.5;entryY=1;entryDx=0;entryDy=0;exitX=0.166;exitY=-0.029;exitDx=0;exitDy=0;exitPerimeter=0;" edge="1" parent="1" source="BlBRRxsIzUEOzJf20E_O-1" target="FQ5N_f2iqAyfcSuhGjna-142">
          <mxGeometry width="50" height="50" relative="1" as="geometry">
            <mxPoint x="187.5000000000001" y="92.52000000000004" as="sourcePoint" />
            <mxPoint x="227.6" y="95" as="targetPoint" />
          </mxGeometry>
        </mxCell>
        <mxCell id="FQ5N_f2iqAyfcSuhGjna-144" value="" style="ellipse;whiteSpace=wrap;html=1;" vertex="1" parent="1">
          <mxGeometry x="149" y="95" width="10" height="10" as="geometry" />
        </mxCell>
        <mxCell id="FQ5N_f2iqAyfcSuhGjna-145" value="" style="endArrow=none;html=1;rounded=0;exitX=0;exitY=0;exitDx=0;exitDy=0;entryX=0.5;entryY=1;entryDx=0;entryDy=0;" edge="1" parent="1" source="BlBRRxsIzUEOzJf20E_O-1" target="FQ5N_f2iqAyfcSuhGjna-144">
          <mxGeometry width="50" height="50" relative="1" as="geometry">
            <mxPoint x="156.5000000000001" y="90.93" as="sourcePoint" />
            <mxPoint x="160" y="99" as="targetPoint" />
          </mxGeometry>
        </mxCell>
        <mxCell id="FQ5N_f2iqAyfcSuhGjna-146" value="" style="ellipse;whiteSpace=wrap;html=1;" vertex="1" parent="1">
          <mxGeometry x="89" y="95" width="10" height="10" as="geometry" />
        </mxCell>
        <mxCell id="FQ5N_f2iqAyfcSuhGjna-147" value="" style="endArrow=none;html=1;rounded=0;exitX=0;exitY=0.25;exitDx=0;exitDy=0;entryX=1;entryY=1;entryDx=0;entryDy=0;" edge="1" parent="1" source="BlBRRxsIzUEOzJf20E_O-1" target="FQ5N_f2iqAyfcSuhGjna-146">
          <mxGeometry width="50" height="50" relative="1" as="geometry">
            <mxPoint x="128" y="89.63999999999999" as="sourcePoint" />
            <mxPoint x="119.5" y="105" as="targetPoint" />
          </mxGeometry>
        </mxCell>
        <mxCell id="FQ5N_f2iqAyfcSuhGjna-148" value="" style="ellipse;whiteSpace=wrap;html=1;" vertex="1" parent="1">
          <mxGeometry x="74" y="135" width="10" height="10" as="geometry" />
        </mxCell>
        <mxCell id="FQ5N_f2iqAyfcSuhGjna-149" value="" style="endArrow=none;html=1;rounded=0;exitX=0.008;exitY=0.367;exitDx=0;exitDy=0;exitPerimeter=0;entryX=1;entryY=0.5;entryDx=0;entryDy=0;" edge="1" parent="1" source="BlBRRxsIzUEOzJf20E_O-1" target="FQ5N_f2iqAyfcSuhGjna-148">
          <mxGeometry width="50" height="50" relative="1" as="geometry">
            <mxPoint x="112.70000000000005" y="102.17999999999995" as="sourcePoint" />
            <mxPoint x="181" y="149" as="targetPoint" />
          </mxGeometry>
        </mxCell>
        <mxCell id="FQ5N_f2iqAyfcSuhGjna-150" value="" style="ellipse;whiteSpace=wrap;html=1;" vertex="1" parent="1">
          <mxGeometry x="99" y="185" width="9" height="10" as="geometry" />
        </mxCell>
        <mxCell id="FQ5N_f2iqAyfcSuhGjna-151" value="" style="endArrow=none;html=1;rounded=0;exitX=0.5;exitY=0;exitDx=0;exitDy=0;entryX=0;entryY=0.5;entryDx=0;entryDy=0;" edge="1" parent="1" source="FQ5N_f2iqAyfcSuhGjna-150" target="BlBRRxsIzUEOzJf20E_O-1">
          <mxGeometry width="50" height="50" relative="1" as="geometry">
            <mxPoint x="121.54" y="214.73000000000002" as="sourcePoint" />
            <mxPoint x="138" y="120.72000000000003" as="targetPoint" />
          </mxGeometry>
        </mxCell>
        <mxCell id="FQ5N_f2iqAyfcSuhGjna-152" value="" style="ellipse;whiteSpace=wrap;html=1;" vertex="1" parent="1">
          <mxGeometry x="60" y="220" width="10" height="10" as="geometry" />
        </mxCell>
        <mxCell id="FQ5N_f2iqAyfcSuhGjna-153" value="" style="endArrow=none;html=1;rounded=0;exitX=1;exitY=0.5;exitDx=0;exitDy=0;entryX=0;entryY=0.5;entryDx=0;entryDy=0;" edge="1" parent="1" source="FQ5N_f2iqAyfcSuhGjna-152" target="BlBRRxsIzUEOzJf20E_O-1">
          <mxGeometry width="50" height="50" relative="1" as="geometry">
            <mxPoint x="89" y="260" as="sourcePoint" />
            <mxPoint x="220" y="210" as="targetPoint" />
          </mxGeometry>
        </mxCell>
        <mxCell id="FQ5N_f2iqAyfcSuhGjna-154" value="" style="ellipse;whiteSpace=wrap;html=1;" vertex="1" parent="1">
          <mxGeometry x="54.5" y="260" width="10" height="10" as="geometry" />
        </mxCell>
        <mxCell id="FQ5N_f2iqAyfcSuhGjna-155" value="" style="endArrow=none;html=1;rounded=0;exitX=1;exitY=0;exitDx=0;exitDy=0;entryX=-0.001;entryY=0.658;entryDx=0;entryDy=0;entryPerimeter=0;" edge="1" parent="1" source="FQ5N_f2iqAyfcSuhGjna-154" target="BlBRRxsIzUEOzJf20E_O-1">
          <mxGeometry width="50" height="50" relative="1" as="geometry">
            <mxPoint x="104" y="280" as="sourcePoint" />
            <mxPoint x="220" y="220" as="targetPoint" />
          </mxGeometry>
        </mxCell>
        <mxCell id="FQ5N_f2iqAyfcSuhGjna-156" value="" style="ellipse;whiteSpace=wrap;html=1;" vertex="1" parent="1">
          <mxGeometry x="94" y="275" width="10" height="10" as="geometry" />
        </mxCell>
        <mxCell id="FQ5N_f2iqAyfcSuhGjna-157" value="" style="endArrow=none;html=1;rounded=0;entryX=-0.016;entryY=0.85;entryDx=0;entryDy=0;exitX=1;exitY=0;exitDx=0;exitDy=0;entryPerimeter=0;" edge="1" parent="1" source="FQ5N_f2iqAyfcSuhGjna-156" target="BlBRRxsIzUEOzJf20E_O-1">
          <mxGeometry width="50" height="50" relative="1" as="geometry">
            <mxPoint x="139" y="290" as="sourcePoint" />
            <mxPoint x="140.87999999999988" y="231.31999999999994" as="targetPoint" />
          </mxGeometry>
        </mxCell>
        <mxCell id="FQ5N_f2iqAyfcSuhGjna-158" value="" style="ellipse;whiteSpace=wrap;html=1;" vertex="1" parent="1">
          <mxGeometry x="139" y="270" width="10" height="10" as="geometry" />
        </mxCell>
        <mxCell id="FQ5N_f2iqAyfcSuhGjna-159" value="" style="endArrow=none;html=1;rounded=0;exitX=0.5;exitY=0;exitDx=0;exitDy=0;entryX=0;entryY=1;entryDx=0;entryDy=0;" edge="1" parent="1" source="FQ5N_f2iqAyfcSuhGjna-158" target="BlBRRxsIzUEOzJf20E_O-1">
          <mxGeometry width="50" height="50" relative="1" as="geometry">
            <mxPoint x="185.97" y="318.46000000000004" as="sourcePoint" />
            <mxPoint x="166.55999999999995" y="230.72000000000003" as="targetPoint" />
          </mxGeometry>
        </mxCell>
        <mxCell id="FQ5N_f2iqAyfcSuhGjna-161" value="via" style="text;html=1;align=center;verticalAlign=middle;resizable=0;points=[];autosize=1;strokeColor=none;fillColor=none;rotation=0;" vertex="1" parent="1">
          <mxGeometry x="114" y="270" width="40" height="30" as="geometry" />
        </mxCell>
        <mxCell id="FQ5N_f2iqAyfcSuhGjna-162" value="città" style="text;html=1;align=center;verticalAlign=middle;resizable=0;points=[];autosize=1;strokeColor=none;fillColor=none;" vertex="1" parent="1">
          <mxGeometry x="10" y="208" width="50" height="30" as="geometry" />
        </mxCell>
        <mxCell id="FQ5N_f2iqAyfcSuhGjna-163" value="cap" style="text;html=1;align=center;verticalAlign=middle;resizable=0;points=[];autosize=1;strokeColor=none;fillColor=none;" vertex="1" parent="1">
          <mxGeometry x="20" y="250" width="40" height="30" as="geometry" />
        </mxCell>
        <mxCell id="FQ5N_f2iqAyfcSuhGjna-164" value="civico" style="text;html=1;align=center;verticalAlign=middle;resizable=0;points=[];autosize=1;strokeColor=none;fillColor=none;" vertex="1" parent="1">
          <mxGeometry x="64.5" y="275" width="50" height="30" as="geometry" />
        </mxCell>
        <mxCell id="FQ5N_f2iqAyfcSuhGjna-167" value="codice" style="text;html=1;align=center;verticalAlign=middle;resizable=0;points=[];autosize=1;strokeColor=none;fillColor=none;" vertex="1" parent="1">
          <mxGeometry x="720" y="802.5" width="60" height="30" as="geometry" />
        </mxCell>
        <mxCell id="FQ5N_f2iqAyfcSuhGjna-169" value="" style="ellipse;whiteSpace=wrap;html=1;fillColor=#000000;fontColor=#333333;strokeColor=#666666;" vertex="1" parent="1">
          <mxGeometry x="747" y="832.5" width="10" height="10" as="geometry" />
        </mxCell>
        <mxCell id="TiZyf9ypteRb4zg2fZ_G-1" value="num. telefono" style="rounded=0;whiteSpace=wrap;html=1;" vertex="1" parent="1">
          <mxGeometry x="379" width="120" height="60" as="geometry" />
        </mxCell>
        <mxCell id="TiZyf9ypteRb4zg2fZ_G-4" style="edgeStyle=orthogonalEdgeStyle;rounded=0;orthogonalLoop=1;jettySize=auto;html=1;exitX=0.5;exitY=0;exitDx=0;exitDy=0;entryX=0;entryY=0.5;entryDx=0;entryDy=0;" edge="1" parent="1" source="TiZyf9ypteRb4zg2fZ_G-3" target="TiZyf9ypteRb4zg2fZ_G-1">
          <mxGeometry relative="1" as="geometry" />
        </mxCell>
        <mxCell id="TiZyf9ypteRb4zg2fZ_G-3" value="possesso" style="rhombus;whiteSpace=wrap;html=1;" vertex="1" parent="1">
          <mxGeometry x="262" y="50" width="62" height="60" as="geometry" />
        </mxCell>
        <mxCell id="TiZyf9ypteRb4zg2fZ_G-8" value="(1,N)" style="text;html=1;align=center;verticalAlign=middle;resizable=0;points=[];autosize=1;strokeColor=none;fillColor=none;" vertex="1" parent="1">
          <mxGeometry x="305" y="118" width="50" height="30" as="geometry" />
        </mxCell>
        <mxCell id="TiZyf9ypteRb4zg2fZ_G-9" value="(1,1)" style="text;html=1;align=center;verticalAlign=middle;resizable=0;points=[];autosize=1;strokeColor=none;fillColor=none;" vertex="1" parent="1">
          <mxGeometry x="315" y="28" width="50" height="30" as="geometry" />
        </mxCell>
        <mxCell id="TiZyf9ypteRb4zg2fZ_G-10" value="R1" style="rhombus;whiteSpace=wrap;html=1;" vertex="1" parent="1">
          <mxGeometry x="183" y="265" width="51" height="50" as="geometry" />
        </mxCell>
        <mxCell id="TiZyf9ypteRb4zg2fZ_G-14" style="edgeStyle=orthogonalEdgeStyle;rounded=0;orthogonalLoop=1;jettySize=auto;html=1;exitX=0.5;exitY=1;exitDx=0;exitDy=0;" edge="1" parent="1" source="TiZyf9ypteRb4zg2fZ_G-10" target="BlBRRxsIzUEOzJf20E_O-2">
          <mxGeometry relative="1" as="geometry">
            <mxPoint x="200" y="400" as="targetPoint" />
            <Array as="points">
              <mxPoint x="209" y="335" />
              <mxPoint x="208" y="335" />
            </Array>
          </mxGeometry>
        </mxCell>
        <mxCell id="TiZyf9ypteRb4zg2fZ_G-15" value="(0,1)" style="text;html=1;align=center;verticalAlign=middle;resizable=0;points=[];autosize=1;strokeColor=none;fillColor=none;" vertex="1" parent="1">
          <mxGeometry x="199" y="235" width="50" height="30" as="geometry" />
        </mxCell>
        <mxCell id="TiZyf9ypteRb4zg2fZ_G-16" value="(1,1)" style="text;html=1;align=center;verticalAlign=middle;resizable=0;points=[];autosize=1;strokeColor=none;fillColor=none;" vertex="1" parent="1">
          <mxGeometry x="199" y="315" width="50" height="30" as="geometry" />
        </mxCell>
        <mxCell id="TiZyf9ypteRb4zg2fZ_G-17" value="" style="endArrow=none;html=1;rounded=0;startArrow=oval;startFill=1;" edge="1" parent="1">
          <mxGeometry width="50" height="50" relative="1" as="geometry">
            <mxPoint x="230" y="350" as="sourcePoint" />
            <mxPoint x="160" y="350" as="targetPoint" />
          </mxGeometry>
        </mxCell>
        <mxCell id="TiZyf9ypteRb4zg2fZ_G-19" value="R2" style="rhombus;whiteSpace=wrap;html=1;" vertex="1" parent="1">
          <mxGeometry x="314" y="225" width="51" height="50" as="geometry" />
        </mxCell>
        <mxCell id="TiZyf9ypteRb4zg2fZ_G-21" style="edgeStyle=orthogonalEdgeStyle;rounded=0;orthogonalLoop=1;jettySize=auto;html=1;exitX=0.5;exitY=1;exitDx=0;exitDy=0;entryX=0.041;entryY=0.018;entryDx=0;entryDy=0;entryPerimeter=0;" edge="1" parent="1" source="TiZyf9ypteRb4zg2fZ_G-19" target="BlBRRxsIzUEOzJf20E_O-3">
          <mxGeometry relative="1" as="geometry" />
        </mxCell>
        <mxCell id="TiZyf9ypteRb4zg2fZ_G-23" value="" style="endArrow=none;html=1;rounded=0;startArrow=oval;startFill=1;" edge="1" parent="1">
          <mxGeometry width="50" height="50" relative="1" as="geometry">
            <mxPoint x="369" y="294.65999999999997" as="sourcePoint" />
            <mxPoint x="320" y="295" as="targetPoint" />
          </mxGeometry>
        </mxCell>
        <mxCell id="TiZyf9ypteRb4zg2fZ_G-24" value="(0,1)" style="text;html=1;align=center;verticalAlign=middle;resizable=0;points=[];autosize=1;strokeColor=none;fillColor=none;" vertex="1" parent="1">
          <mxGeometry x="299" y="175" width="50" height="30" as="geometry" />
        </mxCell>
        <mxCell id="TiZyf9ypteRb4zg2fZ_G-25" value="(1,1)" style="text;html=1;align=center;verticalAlign=middle;resizable=0;points=[];autosize=1;strokeColor=none;fillColor=none;" vertex="1" parent="1">
          <mxGeometry x="299" y="265" width="50" height="30" as="geometry" />
        </mxCell>
        <mxCell id="TiZyf9ypteRb4zg2fZ_G-27" style="edgeStyle=orthogonalEdgeStyle;rounded=0;orthogonalLoop=1;jettySize=auto;html=1;exitX=1;exitY=0.5;exitDx=0;exitDy=0;entryX=-0.001;entryY=0.592;entryDx=0;entryDy=0;entryPerimeter=0;" edge="1" parent="1" source="BlBRRxsIzUEOzJf20E_O-60" target="BlBRRxsIzUEOzJf20E_O-33">
          <mxGeometry relative="1" as="geometry" />
        </mxCell>
        <mxCell id="TiZyf9ypteRb4zg2fZ_G-29" value="" style="endArrow=none;html=1;rounded=0;exitX=0.675;exitY=1.033;exitDx=0;exitDy=0;entryX=0.5;entryY=0;entryDx=0;entryDy=0;exitPerimeter=0;" edge="1" parent="1" source="BlBRRxsIzUEOzJf20E_O-12" target="TiZyf9ypteRb4zg2fZ_G-30">
          <mxGeometry width="50" height="50" relative="1" as="geometry">
            <mxPoint x="749" y="518" as="sourcePoint" />
            <mxPoint x="769" y="640" as="targetPoint" />
          </mxGeometry>
        </mxCell>
        <mxCell id="TiZyf9ypteRb4zg2fZ_G-30" value="" style="ellipse;whiteSpace=wrap;html=1;" vertex="1" parent="1">
          <mxGeometry x="779" y="585" width="10" height="10" as="geometry" />
        </mxCell>
        <mxCell id="TiZyf9ypteRb4zg2fZ_G-32" value="lavoro" style="rounded=0;whiteSpace=wrap;html=1;" vertex="1" parent="1">
          <mxGeometry x="549" y="335" width="90" height="60" as="geometry" />
        </mxCell>
        <mxCell id="TiZyf9ypteRb4zg2fZ_G-34" value="R3" style="rhombus;whiteSpace=wrap;html=1;" vertex="1" parent="1">
          <mxGeometry x="482" y="333" width="36" height="37" as="geometry" />
        </mxCell>
        <mxCell id="TiZyf9ypteRb4zg2fZ_G-48" style="edgeStyle=orthogonalEdgeStyle;rounded=0;orthogonalLoop=1;jettySize=auto;html=1;exitX=0.5;exitY=0;exitDx=0;exitDy=0;entryX=1;entryY=0.5;entryDx=0;entryDy=0;" edge="1" parent="1" source="TiZyf9ypteRb4zg2fZ_G-35" target="TiZyf9ypteRb4zg2fZ_G-32">
          <mxGeometry relative="1" as="geometry">
            <Array as="points">
              <mxPoint x="650" y="411" />
              <mxPoint x="650" y="365" />
            </Array>
          </mxGeometry>
        </mxCell>
        <mxCell id="TiZyf9ypteRb4zg2fZ_G-35" value="R4" style="rhombus;whiteSpace=wrap;html=1;" vertex="1" parent="1">
          <mxGeometry x="633" y="411" width="36" height="37" as="geometry" />
        </mxCell>
        <mxCell id="TiZyf9ypteRb4zg2fZ_G-45" value="" style="endArrow=none;html=1;rounded=0;startArrow=oval;startFill=1;" edge="1" parent="1">
          <mxGeometry width="50" height="50" relative="1" as="geometry">
            <mxPoint x="659" y="405" as="sourcePoint" />
            <mxPoint x="529" y="345" as="targetPoint" />
            <Array as="points">
              <mxPoint x="529" y="405" />
            </Array>
          </mxGeometry>
        </mxCell>
        <mxCell id="TiZyf9ypteRb4zg2fZ_G-47" style="edgeStyle=orthogonalEdgeStyle;rounded=0;orthogonalLoop=1;jettySize=auto;html=1;exitX=1;exitY=0.5;exitDx=0;exitDy=0;entryX=-0.033;entryY=0.272;entryDx=0;entryDy=0;entryPerimeter=0;" edge="1" parent="1" source="TiZyf9ypteRb4zg2fZ_G-34" target="TiZyf9ypteRb4zg2fZ_G-32">
          <mxGeometry relative="1" as="geometry" />
        </mxCell>
        <mxCell id="TiZyf9ypteRb4zg2fZ_G-50" value="" style="endArrow=none;html=1;rounded=0;exitX=0.75;exitY=0;exitDx=0;exitDy=0;entryX=0.5;entryY=1;entryDx=0;entryDy=0;" edge="1" parent="1" source="TiZyf9ypteRb4zg2fZ_G-32" target="TiZyf9ypteRb4zg2fZ_G-51">
          <mxGeometry width="50" height="50" relative="1" as="geometry">
            <mxPoint x="582" y="345" as="sourcePoint" />
            <mxPoint x="620" y="310" as="targetPoint" />
          </mxGeometry>
        </mxCell>
        <mxCell id="TiZyf9ypteRb4zg2fZ_G-51" value="" style="ellipse;whiteSpace=wrap;html=1;" vertex="1" parent="1">
          <mxGeometry x="614" y="300" width="10" height="10" as="geometry" />
        </mxCell>
        <mxCell id="TiZyf9ypteRb4zg2fZ_G-52" value="data_fine" style="text;html=1;align=center;verticalAlign=middle;resizable=0;points=[];autosize=1;strokeColor=none;fillColor=none;" vertex="1" parent="1">
          <mxGeometry x="594" y="275" width="70" height="30" as="geometry" />
        </mxCell>
        <mxCell id="TiZyf9ypteRb4zg2fZ_G-53" value="(0,1)" style="text;html=1;align=center;verticalAlign=middle;resizable=0;points=[];autosize=1;strokeColor=none;fillColor=none;" vertex="1" parent="1">
          <mxGeometry x="609" y="310" width="50" height="30" as="geometry" />
        </mxCell>
        <mxCell id="TiZyf9ypteRb4zg2fZ_G-54" value="(1,1)" style="text;html=1;align=center;verticalAlign=middle;resizable=0;points=[];autosize=1;strokeColor=none;fillColor=none;" vertex="1" parent="1">
          <mxGeometry x="639" y="362.5" width="50" height="30" as="geometry" />
        </mxCell>
        <mxCell id="TiZyf9ypteRb4zg2fZ_G-55" value="(1,1)" style="text;html=1;align=center;verticalAlign=middle;resizable=0;points=[];autosize=1;strokeColor=none;fillColor=none;" vertex="1" parent="1">
          <mxGeometry x="504" y="322.5" width="50" height="30" as="geometry" />
        </mxCell>
        <mxCell id="TiZyf9ypteRb4zg2fZ_G-58" value="R5" style="rhombus;whiteSpace=wrap;html=1;" vertex="1" parent="1">
          <mxGeometry x="209" y="660" width="51" height="50" as="geometry" />
        </mxCell>
        <mxCell id="TiZyf9ypteRb4zg2fZ_G-60" value="R6" style="rhombus;whiteSpace=wrap;html=1;" vertex="1" parent="1">
          <mxGeometry x="359" y="660" width="51" height="50" as="geometry" />
        </mxCell>
        <mxCell id="TiZyf9ypteRb4zg2fZ_G-61" value="R7" style="rhombus;whiteSpace=wrap;html=1;" vertex="1" parent="1">
          <mxGeometry x="508.5" y="660" width="51" height="50" as="geometry" />
        </mxCell>
        <mxCell id="TiZyf9ypteRb4zg2fZ_G-62" style="edgeStyle=orthogonalEdgeStyle;rounded=0;orthogonalLoop=1;jettySize=auto;html=1;exitX=0.5;exitY=0;exitDx=0;exitDy=0;entryX=0.125;entryY=1.033;entryDx=0;entryDy=0;entryPerimeter=0;endArrow=none;endFill=0;" edge="1" parent="1" source="TiZyf9ypteRb4zg2fZ_G-58" target="BlBRRxsIzUEOzJf20E_O-4">
          <mxGeometry relative="1" as="geometry" />
        </mxCell>
        <mxCell id="TiZyf9ypteRb4zg2fZ_G-63" style="edgeStyle=orthogonalEdgeStyle;rounded=0;orthogonalLoop=1;jettySize=auto;html=1;exitX=0.5;exitY=0;exitDx=0;exitDy=0;entryX=0.358;entryY=1.033;entryDx=0;entryDy=0;entryPerimeter=0;endArrow=none;endFill=0;" edge="1" parent="1" source="TiZyf9ypteRb4zg2fZ_G-60" target="BlBRRxsIzUEOzJf20E_O-4">
          <mxGeometry relative="1" as="geometry" />
        </mxCell>
        <mxCell id="TiZyf9ypteRb4zg2fZ_G-64" style="edgeStyle=orthogonalEdgeStyle;rounded=0;orthogonalLoop=1;jettySize=auto;html=1;exitX=0.5;exitY=0;exitDx=0;exitDy=0;entryX=0.675;entryY=1;entryDx=0;entryDy=0;entryPerimeter=0;endArrow=none;endFill=0;" edge="1" parent="1" source="TiZyf9ypteRb4zg2fZ_G-61" target="BlBRRxsIzUEOzJf20E_O-4">
          <mxGeometry relative="1" as="geometry">
            <Array as="points">
              <mxPoint x="400" y="660" />
            </Array>
          </mxGeometry>
        </mxCell>
        <mxCell id="TiZyf9ypteRb4zg2fZ_G-65" value="" style="endArrow=none;html=1;rounded=0;startArrow=oval;startFill=1;" edge="1" parent="1">
          <mxGeometry width="50" height="50" relative="1" as="geometry">
            <mxPoint x="269" y="732.5" as="sourcePoint" />
            <mxPoint x="199" y="732.5" as="targetPoint" />
          </mxGeometry>
        </mxCell>
        <mxCell id="TiZyf9ypteRb4zg2fZ_G-66" value="" style="endArrow=none;html=1;rounded=0;startArrow=oval;startFill=1;" edge="1" parent="1">
          <mxGeometry width="50" height="50" relative="1" as="geometry">
            <mxPoint x="419" y="732.5" as="sourcePoint" />
            <mxPoint x="349" y="732.5" as="targetPoint" />
          </mxGeometry>
        </mxCell>
        <mxCell id="TiZyf9ypteRb4zg2fZ_G-67" value="" style="endArrow=none;html=1;rounded=0;startArrow=oval;startFill=1;" edge="1" parent="1">
          <mxGeometry width="50" height="50" relative="1" as="geometry">
            <mxPoint x="569" y="730" as="sourcePoint" />
            <mxPoint x="499" y="730" as="targetPoint" />
          </mxGeometry>
        </mxCell>
        <mxCell id="TiZyf9ypteRb4zg2fZ_G-68" value="(1,1)" style="text;html=1;align=center;verticalAlign=middle;resizable=0;points=[];autosize=1;strokeColor=none;fillColor=none;" vertex="1" parent="1">
          <mxGeometry x="189" y="700" width="50" height="30" as="geometry" />
        </mxCell>
        <mxCell id="TiZyf9ypteRb4zg2fZ_G-69" value="(1,1)" style="text;html=1;align=center;verticalAlign=middle;resizable=0;points=[];autosize=1;strokeColor=none;fillColor=none;" vertex="1" parent="1">
          <mxGeometry x="339" y="700" width="50" height="30" as="geometry" />
        </mxCell>
        <mxCell id="TiZyf9ypteRb4zg2fZ_G-70" value="(1,1)" style="text;html=1;align=center;verticalAlign=middle;resizable=0;points=[];autosize=1;strokeColor=none;fillColor=none;" vertex="1" parent="1">
          <mxGeometry x="484" y="700" width="50" height="30" as="geometry" />
        </mxCell>
        <mxCell id="TiZyf9ypteRb4zg2fZ_G-71" value="(0,1)" style="text;html=1;align=center;verticalAlign=middle;resizable=0;points=[];autosize=1;strokeColor=none;fillColor=none;" vertex="1" parent="1">
          <mxGeometry x="234" y="640" width="50" height="30" as="geometry" />
        </mxCell>
        <mxCell id="TiZyf9ypteRb4zg2fZ_G-73" value="(0,1)" style="text;html=1;align=center;verticalAlign=middle;resizable=0;points=[];autosize=1;strokeColor=none;fillColor=none;" vertex="1" parent="1">
          <mxGeometry x="344" y="640" width="50" height="30" as="geometry" />
        </mxCell>
        <mxCell id="TiZyf9ypteRb4zg2fZ_G-74" value="(0,1)" style="text;html=1;align=center;verticalAlign=middle;resizable=0;points=[];autosize=1;strokeColor=none;fillColor=none;" vertex="1" parent="1">
          <mxGeometry x="499" y="630" width="50" height="30" as="geometry" />
        </mxCell>
        <mxCell id="n1AuCLsjwlB8rMKgHEmB-1" value="prenotazione" style="rhombus;whiteSpace=wrap;html=1;" vertex="1" parent="1">
          <mxGeometry x="179" y="540" width="80" height="80" as="geometry" />
        </mxCell>
      </root>
    </mxGraphModel>
  </diagram>
</mxfile>
